# Blender v2.83.5 OBJ File: ''
# www.blender.org
mtllib 5.mtl
o テキスト
v 30.743118 -7.559280 7.192706
v 30.743118 5.676479 7.285109
v 19.763187 5.676479 7.285109
v 19.763187 39.367500 7.520316
v 5.023003 39.367500 7.520316
v 5.023003 5.676479 7.285109
v -38.445488 5.676479 7.285109
v -38.445488 -1.091808 7.237857
v 13.445965 -64.563278 6.794744
v 19.763187 -64.563278 6.794744
v 19.763187 -7.559280 7.192706
v 5.023003 -7.559280 7.192706
v 4.872597 -36.738110 6.989000
v -18.741777 -7.559280 7.192706
v 30.743118 -7.454277 -7.847925
v 30.743118 5.781483 -7.755522
v 19.763187 5.781483 -7.755522
v 19.763187 39.472504 -7.520316
v 5.023003 39.472504 -7.520316
v 5.023003 5.781483 -7.755522
v -38.445488 5.781483 -7.755522
v -38.445488 -0.986805 -7.802774
v 13.445965 -64.458282 -8.245887
v 19.763187 -64.458282 -8.245887
v 19.763187 -7.454277 -7.847925
v 5.023003 -7.454277 -7.847925
v 4.872597 -36.633114 -8.051631
v -18.741777 -7.454277 -7.847925
v 30.743118 -7.454277 -7.847925
v 30.743118 -7.559280 7.192706
v 30.743118 5.781483 -7.755522
v 30.743118 5.676479 7.285109
v 19.763187 5.781483 -7.755522
v 19.763187 5.676479 7.285109
v 19.763187 39.472504 -7.520316
v 19.763187 39.367500 7.520316
v 5.023003 39.472504 -7.520316
v 5.023003 39.367500 7.520316
v 5.023003 5.781483 -7.755522
v 5.023003 5.676479 7.285109
v -38.445488 5.781483 -7.755522
v -38.445488 5.676479 7.285109
v -38.445488 -0.986805 -7.802774
v -38.445488 -1.091808 7.237857
v 13.445965 -64.458282 -8.245887
v 13.445965 -64.563278 6.794744
v 19.763187 -64.458282 -8.245887
v 19.763187 -64.563278 6.794744
v 19.763187 -7.454277 -7.847925
v 19.763187 -7.559280 7.192706
v 5.023003 -7.454277 -7.847925
v 5.023003 -7.559280 7.192706
v -18.741777 -7.454277 -7.847925
v -18.741777 -7.559280 7.192706
vt 0.500000 0.000000
vt 0.571429 0.000000
vt 0.642857 0.000000
vt 0.928571 0.000000
vt 0.857143 0.000000
vt 0.714286 0.000000
vt 1.000000 0.000000
vt 0.785714 0.000000
vt 0.000000 0.000000
vt 0.071429 0.000000
vt 0.428571 0.000000
vt 0.357143 0.000000
vt 0.285714 0.000000
vt 0.142857 0.000000
vt 0.214286 0.000000
vt 0.642857 0.000000
vt 0.571429 0.000000
vt 0.500000 0.000000
vt 0.928571 0.000000
vt 0.714286 0.000000
vt 0.857143 0.000000
vt 1.000000 0.000000
vt 0.785714 0.000000
vt 0.000000 0.000000
vt 0.071429 0.000000
vt 0.428571 0.000000
vt 0.357143 0.000000
vt 0.142857 0.000000
vt 0.285714 0.000000
vt 0.214286 0.000000
vt 0.090909 1.000000
vt 0.000000 1.000000
vt 0.000000 0.000000
vt 0.181818 1.000000
vt 0.090909 0.000000
vt 0.272727 1.000000
vt 0.181818 0.000000
vt 0.363636 1.000000
vt 0.272727 0.000000
vt 0.454545 1.000000
vt 0.363636 0.000000
vt 0.545455 1.000000
vt 0.454545 0.000000
vt 0.636364 1.000000
vt 0.545455 0.000000
vt 0.727273 1.000000
vt 0.636364 0.000000
vt 0.818182 1.000000
vt 0.727273 0.000000
vt 0.909091 1.000000
vt 0.818182 0.000000
vt 1.000000 1.000000
vt 0.909091 0.000000
vt 0.250000 1.000000
vt 0.000000 1.000000
vt 0.000000 0.000000
vt 0.750000 1.000000
vt 0.500000 1.000000
vt 0.500000 0.000000
vt 1.000000 1.000000
vt 0.750000 0.000000
vt 1.000000 0.000000
vt 0.250000 0.000000
vt 1.000000 0.000000
vn 0.0000 -0.0070 1.0000
vn 0.0000 0.0000 1.0000
vn 0.0000 0.0070 -1.0000
vn 0.0000 0.0000 -1.0000
vn 0.7071 0.7071 0.0049
vn 0.7071 -0.7071 -0.0049
vn -0.7071 0.7071 0.0049
vn -0.9418 -0.3360 -0.0023
vn -0.4284 -0.9036 -0.0063
vn -0.0614 0.1680 0.9839
vn -0.7089 -0.7053 -0.0049
vn 0.9025 -0.4306 -0.0030
vn -0.0614 0.1817 -0.9814
usemtl None
s off
f 8/1/1 9/2/1 10/3/1
f 8/1/1 10/3/1 13/4/1
f 13/5/1 10/3/1 11/6/1
f 8/1/1 13/4/1 14/7/1
f 12/8/1 13/5/1 11/6/1
f 8/1/1 14/7/1 12/8/1
f 8/1/1 12/8/1 11/6/1
f 8/1/1 11/6/1 1/9/1
f 8/1/1 1/9/1 2/10/1
f 7/11/1 8/1/1 2/10/1
#f 6/12/2 7/11/2 2/10/2
f 5/13/1 6/12/1 3/14/1
#f 3/14/2 6/12/2 2/10/2
f 5/13/1 3/14/1 4/15/1
f 24/16/3 23/17/3 22/18/3
f 27/19/3 24/16/3 22/18/3
f 25/20/3 24/16/3 27/21/3
f 28/22/3 27/19/3 22/18/3
f 25/20/3 27/21/3 26/23/3
f 26/23/3 28/22/3 22/18/3
f 25/20/3 26/23/3 22/18/3
f 15/24/3 25/20/3 22/18/3
f 16/25/3 15/24/3 22/18/3
f 16/25/3 22/18/3 21/26/3
#f 16/25/4 21/26/4 20/27/4
f 17/28/3 20/27/3 19/29/3
#f 16/25/2 20/27/2 17/28/2
f 18/30/3 17/28/3 19/29/3
s 1
f 32/31/5 30/32/6 29/33/6
f 34/34/5 32/31/5 31/35/5
f 36/36/5 34/34/5 33/37/5
f 38/38/7 36/36/5 35/39/5
f 40/40/7 38/38/7 37/41/7
f 42/42/7 40/40/7 39/43/7
f 44/44/8 42/42/7 41/45/7
f 46/46/9 44/44/8 43/47/8
f 48/48/6 46/46/9 45/49/9
f 50/50/6 48/48/6 47/51/6
f 30/52/6 50/50/6 49/53/6
f 13/54/10 52/55/11 51/56/11
f 54/57/12 13/58/10 27/59/13
f 52/60/11 54/57/12 53/61/12
f 32/31/5 29/33/6 31/35/5
f 34/34/5 31/35/5 33/37/5
f 36/36/5 33/37/5 35/39/5
f 38/38/7 35/39/5 37/41/7
f 40/40/7 37/41/7 39/43/7
f 42/42/7 39/43/7 41/45/7
f 44/44/8 41/45/7 43/47/8
f 46/46/9 43/47/8 45/49/9
f 48/48/6 45/49/9 47/51/6
f 50/50/6 47/51/6 49/53/6
f 30/52/6 49/53/6 29/62/6
f 13/54/10 51/56/11 27/63/13
f 54/57/12 27/59/13 53/61/12
f 52/60/11 53/61/12 51/64/11
