# Blender v2.83.5 OBJ File: ''
# www.blender.org
mtllib HIRA_E_25.mtl
o テキスト
v 13.673332 -23.042744 2.500003
v 13.084541 -18.921570 2.500002
v 6.422047 -19.165192 2.500002
v -5.152153 -20.067631 2.500002
v -4.562791 -24.601543 2.500003
v 1.302843 -23.637917 2.500003
v 9.227365 -23.099442 2.500003
v -9.071765 -7.356470 2.500001
v -10.435019 -11.644156 2.500002
v 7.229895 -13.045471 2.500002
v 11.890242 -13.622501 2.500002
v 13.477253 -14.415293 2.500002
v 16.810585 -11.081961 2.500002
v 13.758839 -8.847124 2.500001
v 8.320585 -4.348368 2.500001
v 4.290743 -0.335234 2.500001
v 7.785919 -0.656967 2.500001
v 9.102631 -0.574515 2.500001
v 10.196194 -0.096408 2.500001
v 11.077085 0.850693 2.500001
v 11.487728 2.128292 2.500001
v 11.549871 10.162283 2.500000
v 12.074070 11.254708 2.500000
v 13.142288 11.671688 2.500000
v 25.241962 11.663137 2.500000
v 24.457645 15.976863 2.500000
v 12.680004 15.891206 2.500000
v 9.934416 14.929810 2.500000
v 8.579361 13.618085 2.500000
v 7.896830 12.202209 2.500000
v 7.616859 10.646685 2.500000
v 7.554499 4.345252 2.500000
v 7.185778 3.558035 2.500000
v 6.498987 2.968498 2.500000
v 4.933908 2.625986 2.500001
v 3.178848 2.820224 2.500000
v 1.488405 3.530295 2.500000
v -0.067533 4.646922 2.500000
v -4.192839 8.615999 2.500000
v -10.085711 15.163464 2.500000
v -13.581569 12.839608 2.500000
v -9.579893 8.289850 2.500000
v -3.376801 1.788116 2.500001
v 3.339420 -4.749809 2.500001
v 8.575293 -9.513334 2.500001
v 13.673332 -23.042744 -2.499997
v 13.084541 -18.921570 -2.499997
v 6.422047 -19.165192 -2.499997
v -5.152153 -20.067631 -2.499997
v -4.562791 -24.601543 -2.499997
v 1.302843 -23.637917 -2.499997
v 9.227365 -23.099442 -2.499997
v -9.071765 -7.356470 -2.499998
v -10.435019 -11.644156 -2.499998
v 7.229895 -13.045471 -2.499998
v 11.890242 -13.622501 -2.499998
v 13.477253 -14.415293 -2.499998
v 16.810585 -11.081961 -2.499998
v 13.758839 -8.847124 -2.499998
v 8.320585 -4.348368 -2.499998
v 4.290743 -0.335234 -2.499999
v 8.720583 -0.661716 -2.499999
v 10.196194 -0.096408 -2.499999
v 11.077085 0.850693 -2.499999
v 11.487728 2.128292 -2.499999
v 11.549871 10.162283 -2.500000
v 12.074070 11.254708 -2.500000
v 13.142288 11.671687 -2.500000
v 25.241962 11.663136 -2.500000
v 24.457645 15.976862 -2.500000
v 12.680004 15.891205 -2.500000
v 9.934416 14.929809 -2.500000
v 8.579361 13.618085 -2.500000
v 7.896830 12.202209 -2.500000
v 7.616859 10.646684 -2.500000
v 7.554499 4.345252 -2.499999
v 7.185778 3.558035 -2.499999
v 6.498987 2.968498 -2.499999
v 4.933908 2.625986 -2.499999
v 3.178848 2.820224 -2.499999
v 1.488405 3.530295 -2.499999
v -0.067533 4.646922 -2.499999
v -4.192839 8.615999 -2.499999
v -10.085711 15.163463 -2.500000
v -13.581569 12.839607 -2.500000
v -9.579893 8.289850 -2.499999
v -3.376801 1.788116 -2.499999
v 3.339420 -4.749809 -2.499998
v 8.575293 -9.513334 -2.499998
v -9.071765 -7.356470 -2.499998
v -9.071765 -7.356470 2.500001
v -10.433647 -11.642132 -2.499998
v -10.436096 -11.646368 2.500002
v 13.512642 -13.806704 -2.499998
v 13.174866 -13.743010 2.500002
v 16.736130 -11.126255 -2.499998
v 16.754848 -11.126266 2.500002
v 3.998598 -0.324087 -2.499999
v 3.967100 -0.319373 2.500001
v 9.448555 -0.597926 -2.499999
v 9.370226 -0.616348 2.500001
v 11.392487 1.406956 -2.499999
v 11.363794 1.316719 2.500001
v 11.938869 11.406586 -2.500000
v 11.901999 11.376177 2.500000
v 25.241962 11.663136 -2.500000
v 25.241962 11.663137 2.500000
v 24.457645 15.976862 -2.500000
v 24.457645 15.976863 2.500000
v 10.520353 15.507854 -2.500000
v 10.282757 15.471513 2.500000
v 7.732248 11.930695 -2.500000
v 7.710028 11.673180 2.500000
v 7.282722 3.399931 -2.499999
v 7.328840 3.462890 2.500000
v 3.988590 2.598858 -2.499999
v 4.136574 2.581622 2.500001
v -0.059015 4.465985 -2.499999
v 0.086523 4.346340 2.500000
v -10.084146 15.166891 -2.500000
v -10.085819 15.158731 2.500000
v -13.717297 12.571398 -2.500000
v -13.756598 12.646890 2.500000
v 8.413475 -9.482298 -2.499998
v 8.367014 -9.458347 2.500001
v 13.654873 -22.969719 -2.499997
v 13.332592 -22.736393 2.500003
v 13.039318 -18.826244 -2.499997
v 13.081738 -18.906204 2.500002
v -5.117169 -19.969467 2.500002
v -5.152678 -20.070324 -2.499997
v -4.396217 -24.336117 -2.499997
v -4.563420 -24.559757 2.500003
vt 0.251476 0.000000
vt 0.258065 0.000000
vt 0.264516 0.000000
vt 0.226749 0.000000
vt 0.174212 0.000000
vt 0.167742 0.000000
vt 1.000000 0.000000
vt 0.280940 0.000000
vt 0.983629 0.000000
vt 0.313524 0.000000
vt 0.342483 0.000000
vt 0.961144 0.000000
vt 0.385561 0.000000
vt 0.412248 0.000000
vt 0.436037 0.000000
vt 0.460959 0.000000
vt 0.485262 0.000000
vt 0.757446 0.000000
vt 0.783534 0.000000
vt 0.731145 0.000000
vt 0.712929 0.000000
vt 0.515199 0.000000
vt 0.809093 0.000000
vt 0.938459 0.000000
vt 0.695574 0.000000
vt 0.832317 0.000000
vt 0.672452 0.000000
vt 0.867675 0.000000
vt 0.541979 0.000000
vt 0.916125 0.000000
vt 0.660993 0.000000
vt 0.922581 0.000000
vt 0.567403 0.000000
vt 0.587097 0.000000
vt 0.593548 0.000000
vt 0.648305 0.000000
vt 0.632737 0.000000
vt 0.611929 0.000000
vt 0.083865 0.000000
vt 0.090328 0.000000
vt 0.118239 0.000000
vt 0.151132 0.000000
vt 0.000000 0.000000
vt 0.006454 0.000000
vt 0.035266 0.000000
vt 0.264516 0.000000
vt 0.258065 0.000000
vt 0.251476 0.000000
vt 0.226749 0.000000
vt 0.174212 0.000000
vt 0.167742 0.000000
vt 1.000000 0.000000
vt 0.280940 0.000000
vt 0.983629 0.000000
vt 0.313524 0.000000
vt 0.342483 0.000000
vt 0.961144 0.000000
vt 0.436037 0.000000
vt 0.404425 0.000000
vt 0.460959 0.000000
vt 0.485262 0.000000
vt 0.757446 0.000000
vt 0.783534 0.000000
vt 0.731145 0.000000
vt 0.712929 0.000000
vt 0.515199 0.000000
vt 0.809093 0.000000
vt 0.938459 0.000000
vt 0.695574 0.000000
vt 0.832317 0.000000
vt 0.672452 0.000000
vt 0.867675 0.000000
vt 0.541979 0.000000
vt 0.916125 0.000000
vt 0.660993 0.000000
vt 0.922581 0.000000
vt 0.567403 0.000000
vt 0.593548 0.000000
vt 0.587097 0.000000
vt 0.648305 0.000000
vt 0.632737 0.000000
vt 0.611929 0.000000
vt 0.118239 0.000000
vt 0.090328 0.000000
vt 0.083865 0.000000
vt 0.151132 0.000000
vt 0.000000 0.000000
vt 0.006454 0.000000
vt 0.035266 0.000000
vt 0.007711 1.000000
vt 0.000000 1.000000
vt 0.000000 0.000000
vt 0.105025 1.000000
vt 0.007718 0.000000
vt 0.115482 1.000000
vt 0.106609 0.000000
vt 0.209696 1.000000
vt 0.115560 0.000000
vt 0.297074 1.000000
vt 0.209750 0.000000
vt 0.361091 1.000000
vt 0.298942 0.000000
vt 0.446197 1.000000
vt 0.363105 0.000000
vt 0.500000 1.000000
vt 0.445915 0.000000
vt 0.507692 1.000000
vt 0.500000 0.000000
vt 0.550564 1.000000
vt 0.507692 0.000000
vt 0.592890 1.000000
vt 0.590482 0.000000
vt 0.649529 1.000000
vt 0.717003 1.000000
vt 0.651143 0.000000
vt 0.782786 1.000000
vt 0.719586 0.000000
vt 0.892280 1.000000
vt 0.784902 0.000000
vt 0.900074 1.000000
vt 0.892314 0.000000
vt 0.991781 1.000000
vt 0.900333 0.000000
vt 1.000000 1.000000
vt 0.991920 0.000000
vt 0.038534 1.000000
vt 0.000000 1.000000
vt 0.000000 0.000000
vt 0.498882 1.000000
vt 0.039546 0.000000
vt 0.538691 1.000000
vt 0.499986 0.000000
vt 0.992279 1.000000
vt 0.544275 0.000000
vt 0.548342 0.000000
vt 1.000000 0.000000
vt 0.999609 0.000000
vn 0.0000 0.0000 1.0000
vn -0.0000 -0.0000 -1.0000
vn -0.8324 -0.5542 -0.0008
vn -0.5405 0.8413 -0.0004
vn -0.5405 0.8413 -0.0001
vn 0.2537 -0.9668 0.0289
vn -0.8326 -0.5538 -0.0001
vn 0.9996 -0.0212 0.0194
vn 0.2970 -0.9547 0.0156
vn 0.9293 -0.3692 0.0045
vn 1.0000 -0.0041 -0.0029
vn 0.3473 -0.9377 0.0033
vn 0.9290 -0.3699 0.0024
vn 0.9104 -0.4136 0.0041
vn 0.3658 -0.9307 -0.0041
vn 0.6984 -0.7157 0.0003
vn 0.9180 -0.3965 -0.0015
vn 0.7740 -0.6331 -0.0010
vn 0.6922 -0.7217 0.0016
vn 0.6269 0.7790 0.0000
vn 0.7739 -0.6333 0.0000
vn -0.4810 0.8767 0.0012
vn 0.6271 0.7789 0.0008
vn -0.9516 0.3071 0.0116
vn -0.9398 0.3417 -0.0021
vn -0.7837 0.6211 -0.0028
vn 0.0703 0.9975 -0.0056
vn -0.7696 0.6385 0.0070
vn 0.5758 0.8175 -0.0025
vn 0.0979 0.9951 0.0060
vn 0.1084 0.9941 0.0008
vn 0.5882 0.8087 0.0029
vn -0.9955 0.0946 -0.0016
vn 0.1034 0.9946 -0.0047
vn -0.8997 0.4365 -0.0092
vn -0.9971 0.0751 -0.0096
vn -0.8995 0.4368 -0.0095
vn 0.6535 0.7562 0.0332
vn 0.7527 -0.6548 0.0679
vn 0.7711 -0.6345 0.0528
vn -0.7640 0.6452 -0.0031
vn 0.6245 0.7810 0.0030
vn -0.6139 -0.7884 -0.0377
vn -0.7852 0.6186 -0.0269
vn -0.6040 -0.7957 -0.0450
vn -0.4428 0.8965 -0.0145
usemtl None
s off
f 11/1/1 12/2/1 13/3/1
f 10/4/1 11/1/1 13/3/1
f 9/5/1 10/4/1 13/3/1
f 8/6/1 9/5/1 13/3/1
f 8/6/1 13/3/1 45/7/1
f 45/7/1 13/3/1 14/8/1
f 44/9/1 45/7/1 14/8/1
f 44/9/1 14/8/1 15/10/1
f 44/9/1 15/10/1 16/11/1
f 43/12/1 44/9/1 16/11/1
f 16/11/1 17/13/1 18/14/1
f 16/11/1 18/14/1 19/15/1
f 43/12/1 16/11/1 19/15/1
f 43/12/1 19/15/1 20/16/1
f 43/12/1 20/16/1 21/17/1
f 35/18/1 43/12/1 21/17/1
f 43/12/1 35/18/1 36/19/1
f 34/20/1 35/18/1 21/17/1
f 34/20/1 21/17/1 33/21/1
f 33/21/1 21/17/1 22/22/1
f 43/12/1 36/19/1 37/23/1
f 42/24/1 43/12/1 37/23/1
f 32/25/1 33/21/1 22/22/1
f 42/24/1 37/23/1 38/26/1
f 31/27/1 32/25/1 22/22/1
f 42/24/1 38/26/1 39/28/1
f 31/27/1 22/22/1 23/29/1
f 42/24/1 39/28/1 40/30/1
f 30/31/1 31/27/1 23/29/1
f 41/32/1 42/24/1 40/30/1
f 30/31/1 23/29/1 24/33/1
f 24/33/1 25/34/1 26/35/1
f 30/31/1 24/33/1 26/35/1
f 29/36/1 30/31/1 26/35/1
f 28/37/1 29/36/1 26/35/1
f 27/38/1 28/37/1 26/35/1
f 4/39/1 5/40/1 6/41/1
f 4/39/1 6/41/1 7/42/1
f 4/39/1 7/42/1 1/43/1
f 4/39/1 1/43/1 2/44/1
f 3/45/1 4/39/1 2/44/1
f 58/46/2 57/47/2 56/48/2
f 58/46/2 56/48/2 55/49/2
f 58/46/2 55/49/2 54/50/2
f 58/46/2 54/50/2 53/51/2
f 89/52/2 58/46/2 53/51/2
f 59/53/2 58/46/2 89/52/2
f 59/53/2 89/52/2 88/54/2
f 60/55/2 59/53/2 88/54/2
f 61/56/2 60/55/2 88/54/2
f 61/56/2 88/54/2 87/57/2
f 63/58/2 62/59/2 61/56/2
f 63/58/2 61/56/2 87/57/2
f 64/60/2 63/58/2 87/57/2
f 65/61/2 64/60/2 87/57/2
f 65/61/2 87/57/2 79/62/2
f 80/63/2 79/62/2 87/57/2
f 65/61/2 79/62/2 78/64/2
f 77/65/2 65/61/2 78/64/2
f 66/66/2 65/61/2 77/65/2
f 81/67/2 80/63/2 87/57/2
f 81/67/2 87/57/2 86/68/2
f 66/66/2 77/65/2 76/69/2
f 82/70/2 81/67/2 86/68/2
f 66/66/2 76/69/2 75/71/2
f 83/72/2 82/70/2 86/68/2
f 67/73/2 66/66/2 75/71/2
f 84/74/2 83/72/2 86/68/2
f 67/73/2 75/71/2 74/75/2
f 84/74/2 86/68/2 85/76/2
f 68/77/2 67/73/2 74/75/2
f 70/78/2 69/79/2 68/77/2
f 70/78/2 68/77/2 74/75/2
f 70/78/2 74/75/2 73/80/2
f 70/78/2 73/80/2 72/81/2
f 70/78/2 72/81/2 71/82/2
f 51/83/2 50/84/2 49/85/2
f 52/86/2 51/83/2 49/85/2
f 46/87/2 52/86/2 49/85/2
f 47/88/2 46/87/2 49/85/2
f 47/88/2 49/85/2 48/89/2
s 1
f 93/90/3 91/91/4 90/92/5
f 95/93/6 93/90/3 92/94/7
f 97/95/8 95/93/6 94/96/9
f 99/97/10 97/95/8 96/98/11
f 101/99/12 99/97/10 98/100/13
f 103/101/14 101/99/12 100/102/15
f 105/103/16 103/101/14 102/104/17
f 107/105/18 105/103/16 104/106/19
f 109/107/20 107/105/18 106/108/21
f 111/109/22 109/107/20 108/110/23
f 113/111/24 111/109/22 112/112/25
f 115/113/26 113/111/24 112/112/25
f 117/114/27 115/113/26 114/115/28
f 119/116/29 117/114/27 116/117/30
f 121/118/31 119/116/29 118/119/32
f 123/120/33 121/118/31 120/121/34
f 125/122/35 123/120/33 122/123/36
f 91/124/4 125/122/35 124/125/37
f 129/126/38 127/127/39 126/128/40
f 130/129/41 129/126/38 128/130/42
f 133/131/43 130/129/41 131/132/44
f 127/133/39 133/131/43 132/134/45
f 93/90/3 90/92/5 92/94/7
f 95/93/6 92/94/7 94/96/9
f 97/95/8 94/96/9 96/98/11
f 99/97/10 96/98/11 98/100/13
f 101/99/12 98/100/13 100/102/15
f 103/101/14 100/102/15 102/104/17
f 105/103/16 102/104/17 104/106/19
f 107/105/18 104/106/19 106/108/21
f 109/107/20 106/108/21 108/110/23
f 111/109/22 108/110/23 110/135/46
f 111/109/22 110/135/46 112/112/25
f 115/113/26 112/112/25 114/115/28
f 117/114/27 114/115/28 116/117/30
f 119/116/29 116/117/30 118/119/32
f 121/118/31 118/119/32 120/121/34
f 123/120/33 120/121/34 122/123/36
f 125/122/35 122/123/36 124/125/37
f 91/124/4 124/125/37 90/136/5
f 129/126/38 126/128/40 128/130/42
f 130/129/41 128/130/42 131/132/44
f 133/131/43 131/132/44 132/134/45
f 127/133/39 132/134/45 126/137/40
