# Blender v2.83.5 OBJ File: ''
# www.blender.org
mtllib 6_50.mtl
o テキスト.002
v 6.086105 -55.052948 7.529009
v 12.493858 -59.650772 7.529009
v 21.378078 -48.357277 7.529009
v 0.194401 -50.160751 7.529009
v -5.173409 -44.999809 7.529009
v 17.802670 -46.118362 7.529008
v 12.638227 -42.360439 7.529010
v -10.009481 -39.595749 7.529008
v 6.154404 -36.529491 7.529008
v -14.305979 -33.974182 7.529008
v 0.386941 -30.054567 7.529009
v -18.055054 -28.160730 7.529008
v -4.466702 -23.138233 7.529009
v -21.248865 -22.181017 7.529008
v -23.879570 -16.060656 7.529008
v -8.210666 -15.983996 7.529008
v -25.939327 -9.825265 7.529007
v 5.526548 -14.942095 7.529007
v 10.032734 -14.663861 7.529007
v 0.557137 -14.503862 7.529007
v 13.848381 -13.890485 7.529007
v -10.073026 -10.756673 7.529008
v -4.850512 -13.057435 7.529008
v 17.437122 -12.639222 7.529008
v 20.770184 -10.940927 7.529008
v 23.818817 -8.826447 7.529007
v -27.420292 -3.500474 7.529007
v 26.554268 -6.326632 7.529008
v 28.947777 -3.472322 7.529007
v -28.314623 2.888110 7.529007
v -2.639858 -0.471135 7.529007
v 1.814386 -0.940330 7.529021
v 30.970581 -0.294370 7.529007
v 5.398212 -0.786023 7.529007
v 8.770929 -0.112240 7.529007
v 32.593933 3.176375 7.529007
v -5.655752 0.401644 7.529007
v 12.720550 1.673182 7.529007
v -9.232512 2.022272 7.529009
v 15.950226 4.306592 7.529006
v -28.614479 9.314860 7.529007
v 33.789078 6.909068 7.529007
v -13.255318 4.496303 7.529007
v -13.950094 8.575377 7.529007
v 18.328756 7.659397 7.529007
v 34.527252 10.872859 7.529008
v -14.107906 12.371074 7.529007
v 19.442146 10.578063 7.529008
v -28.339373 14.586907 7.529007
v 20.013752 13.685971 7.529007
v 34.779701 15.036904 7.529007
v -13.775290 15.869798 7.529007
v -27.530441 19.543148 7.529007
v 19.746874 18.550869 7.529007
v 34.497620 19.152496 7.529007
v -12.998774 19.057943 7.529007
v -11.824894 21.921926 7.529006
v 33.677536 23.115938 7.529007
v -26.212257 24.156404 7.529007
v 18.439903 22.820276 7.529007
v -10.300184 24.448151 7.529007
v 32.358650 26.888018 7.529006
v 16.202648 26.367441 7.529008
v -24.409393 28.399483 7.529007
v -8.471178 26.623020 7.529006
v -6.384409 28.432943 7.529007
v 30.580185 30.429523 7.529007
v 13.946770 28.472593 7.529007
v -22.146423 32.245201 7.529006
v -4.086409 29.864325 7.529007
v 11.312510 30.132763 7.529006
v -1.623711 30.903570 7.529007
v 28.381355 33.701241 7.529007
v 7.164403 31.469322 7.529005
v 0.957150 31.537088 7.529006
v 3.609642 31.751282 7.529006
v -19.447922 35.666363 7.529007
v 25.801365 36.663956 7.529006
v -16.338461 38.635784 7.529006
v 22.879433 39.278454 7.529006
v -12.842617 41.126282 7.529006
v 19.654770 41.505520 7.529006
v -8.984964 43.110657 7.529006
v 16.166595 43.305946 7.529006
v -4.790075 44.561733 7.529006
v 12.454121 44.640514 7.529006
v -0.282524 45.452316 7.529006
v 8.556557 45.470009 7.529006
v 4.513119 45.755222 7.529006
v 21.378078 -48.357277 -7.528989
v 12.493858 -59.650772 -7.528988
v 6.086105 -55.052948 -7.528988
v 0.194401 -50.160751 -7.528988
v -5.173409 -44.999809 -7.528988
v 17.802670 -46.118362 -7.528989
v 12.638227 -42.360439 -7.528988
v -10.009481 -39.595749 -7.528990
v 6.154404 -36.529491 -7.528990
v -14.305979 -33.974182 -7.528990
v 0.386941 -30.054564 -7.528989
v -18.055054 -28.160727 -7.528990
v -4.466702 -23.138229 -7.528990
v -21.248865 -22.181013 -7.528990
v -23.879570 -16.060652 -7.528989
v -8.210666 -15.983994 -7.528989
v -25.939327 -9.825263 -7.528989
v 10.032734 -14.663859 -7.528989
v 5.526548 -14.942093 -7.528989
v 0.557137 -14.503860 -7.528989
v 13.848381 -13.890483 -7.528989
v -10.073026 -10.756671 -7.528990
v -4.850512 -13.057433 -7.528991
v 17.437122 -12.639220 -7.528990
v 20.770184 -10.940925 -7.528990
v 23.818817 -8.826446 -7.528989
v -27.420292 -3.500472 -7.528989
v 26.554268 -6.326629 -7.528990
v 28.947777 -3.472320 -7.528989
v -2.639858 -0.471133 -7.528989
v -28.314623 2.888112 -7.528991
v 1.814386 -0.940328 -7.528990
v 30.970581 -0.294368 -7.528990
v 5.398212 -0.786021 -7.528990
v 8.770929 -0.112238 -7.528990
v 32.593933 3.176377 -7.528991
v -5.655752 0.401647 -7.528990
v 12.720550 1.673185 -7.528995
v -9.232512 2.022274 -7.528993
v 15.950226 4.306595 -7.528990
v -28.614479 9.314862 -7.528991
v 33.789078 6.909070 -7.528991
v -13.255318 4.496305 -7.528990
v -13.950094 8.575379 -7.528991
v 18.328756 7.659400 -7.528991
v 34.527252 10.872861 -7.528990
v -14.107906 12.371076 -7.528991
v 19.442146 10.578065 -7.528990
v -28.339373 14.586905 -7.528991
v 20.013752 13.685967 -7.528991
v 34.779701 15.036902 -7.528991
v -13.775290 15.869796 -7.528991
v -27.530441 19.543148 -7.528991
v 19.746874 18.550869 -7.528992
v 34.497620 19.152496 -7.528991
v -12.998774 19.057943 -7.528991
v -11.824894 21.921926 -7.528992
v 33.677536 23.115938 -7.528991
v -26.212257 24.156404 -7.528991
v 18.439903 22.820276 -7.528992
v -10.300184 24.448151 -7.528991
v 32.358650 26.888018 -7.528992
v 16.202648 26.367441 -7.528990
v -24.409393 28.399483 -7.528991
v -8.471178 26.623020 -7.528992
v -6.384409 28.432943 -7.528991
v 30.580185 30.429523 -7.528991
v 13.946770 28.472593 -7.528991
v -22.146423 32.245193 -7.528991
v -4.086409 29.864325 -7.528991
v 11.312510 30.132763 -7.528992
v -1.623711 30.903570 -7.528991
v 28.381355 33.701237 -7.528991
v 7.164403 31.469322 -7.528991
v 0.957150 31.537088 -7.528991
v 3.609642 31.751282 -7.528991
v -19.447922 35.666359 -7.528991
v 25.801365 36.663952 -7.528991
v -16.338461 38.635780 -7.528992
v 22.879433 39.278450 -7.528992
v -12.842617 41.126278 -7.528991
v 19.654770 41.505516 -7.528991
v -8.984964 43.110657 -7.528991
v 16.166595 43.305943 -7.528992
v -4.790075 44.561729 -7.528992
v 12.454121 44.640511 -7.528992
v -0.282524 45.452312 -7.528991
v 8.556557 45.470005 -7.528991
v 4.513119 45.755219 -7.528991
v 9.740549 -40.071960 7.529009
v 21.333715 -48.404400 7.529009
v 21.299625 -48.427467 -7.528989
v 8.814360 -39.239597 -7.528989
v -2.028925 -27.048925 7.529009
v -2.718325 -26.062752 -7.528990
v -10.474445 -10.597790 7.529007
v -10.308560 -10.775124 -7.528990
v -0.483187 -14.538738 7.529007
v 1.356676 -14.794507 -7.528989
v 15.236551 -13.800114 7.529007
v 16.267828 -13.439688 -7.528990
v 27.647846 -5.573134 7.529007
v 28.338984 -4.751229 -7.528990
v 34.418369 8.281203 7.529008
v 34.637669 9.447748 -7.528991
v 33.607906 24.454998 7.529006
v 33.229568 25.544422 -7.528991
v 24.971174 37.884861 7.529006
v 24.123327 38.642216 -7.528991
v 11.070859 45.333359 7.529006
v 9.974636 45.564724 -7.528991
v -2.237468 45.215336 7.529006
v -3.038333 45.054779 -7.528992
v -10.655047 42.415401 7.529006
v -11.341989 42.061291 -7.528991
v -17.692350 37.539955 7.529006
v -18.246859 37.011787 -7.528991
v -25.341534 27.271120 7.529006
v -23.563044 30.114183 -7.528991
v -28.393316 16.799528 -7.528991
v -28.790598 10.119880 7.529007
v -26.955511 -6.085391 7.529007
v -27.466425 -4.253786 -7.528989
v -20.559977 -24.335543 7.529009
v -19.654436 -26.039516 -7.528990
v -3.686768 -46.979420 7.529009
v -2.163349 -48.450314 -7.528988
v 12.493858 -59.650772 7.529009
v 12.493858 -59.650772 -7.528988
v 9.117946 31.135338 7.529007
v 4.858867 31.918516 -7.528991
v 14.382042 28.489599 -7.528991
v 15.362951 27.357931 7.529006
v 19.228355 21.180265 7.529007
v 19.418041 20.570578 -7.528991
v 19.907558 11.803679 7.529007
v 19.914347 12.322306 -7.528991
v 17.356277 6.052615 7.529007
v 17.203733 5.600942 -7.528991
v 13.070230 1.737274 7.529007
v 10.621513 0.430132 -7.528990
v 4.832099 -1.004495 7.529007
v 3.024374 -0.998490 -7.528990
v -3.688005 -0.284228 7.529007
v -5.119045 0.066232 -7.528989
v -12.982403 4.070813 7.529007
v -13.239494 4.433246 -7.528990
v -14.329201 13.812929 7.529008
v -14.162654 10.902224 -7.528991
v -12.534886 21.074362 -7.528991
v -9.900110 25.422379 7.529007
v -5.067145 29.615622 -7.528991
v -0.859085 31.395351 7.529007
vt 0.583333 0.000000
vt 0.591667 0.000000
vt 0.600000 0.000000
vt 0.575000 0.000000
vt 0.566667 0.000000
vt 0.000000 0.000000
vt 0.012404 0.000000
vt 0.558333 0.000000
vt 0.029180 0.000000
vt 0.550000 0.000000
vt 0.045958 0.000000
vt 0.541667 0.000000
vt 0.062728 0.000000
vt 0.533333 0.000000
vt 0.525000 0.000000
vt 0.079481 0.000000
vt 0.516667 0.000000
vt 0.162889 0.000000
vt 0.189203 0.000000
vt 0.200000 0.000000
vt 0.208333 0.000000
vt 0.091934 0.000000
vt 0.130040 0.000000
vt 0.216667 0.000000
vt 0.225000 0.000000
vt 0.233333 0.000000
vt 0.508333 0.000000
vt 0.241667 0.000000
vt 0.250000 0.000000
vt 0.500000 0.000000
vt 0.833730 0.000000
vt 0.806668 0.000000
vt 0.258333 0.000000
vt 0.791667 0.000000
vt 0.779088 0.000000
vt 0.266667 0.000000
vt 0.853913 0.000000
vt 0.762432 0.000000
vt 0.876765 0.000000
vt 0.745780 0.000000
vt 0.491667 0.000000
vt 0.275000 0.000000
vt 0.900000 0.000000
vt 0.908333 0.000000
vt 0.729147 0.000000
vt 0.283333 0.000000
vt 0.916667 0.000000
vt 0.716667 0.000000
vt 0.483333 0.000000
vt 0.704510 0.000000
vt 0.291667 0.000000
vt 0.925000 0.000000
vt 0.475000 0.000000
vt 0.687316 0.000000
vt 0.300000 0.000000
vt 0.933333 0.000000
vt 0.941667 0.000000
vt 0.308333 0.000000
vt 0.466667 0.000000
vt 0.670704 0.000000
vt 0.950000 0.000000
vt 0.316667 0.000000
vt 0.654120 0.000000
vt 0.458333 0.000000
vt 0.958333 0.000000
vt 0.966667 0.000000
vt 0.325000 0.000000
vt 0.641667 0.000000
vt 0.450000 0.000000
vt 0.975000 0.000000
vt 0.629262 0.000000
vt 0.983333 0.000000
vt 0.333333 0.000000
vt 0.612669 0.000000
vt 0.991667 0.000000
vt 1.000000 0.000000
vt 0.441667 0.000000
vt 0.341667 0.000000
vt 0.433333 0.000000
vt 0.350000 0.000000
vt 0.425000 0.000000
vt 0.358333 0.000000
vt 0.416667 0.000000
vt 0.366667 0.000000
vt 0.408333 0.000000
vt 0.375000 0.000000
vt 0.400000 0.000000
vt 0.383333 0.000000
vt 0.391667 0.000000
vt 0.600000 0.000000
vt 0.591667 0.000000
vt 0.583333 0.000000
vt 0.575000 0.000000
vt 0.566667 0.000000
vt 0.000000 0.000000
vt 0.012404 0.000000
vt 0.558333 0.000000
vt 0.029180 0.000000
vt 0.550000 0.000000
vt 0.045958 0.000000
vt 0.541667 0.000000
vt 0.062728 0.000000
vt 0.533333 0.000000
vt 0.525000 0.000000
vt 0.079481 0.000000
vt 0.516667 0.000000
vt 0.200000 0.000000
vt 0.189203 0.000000
vt 0.162889 0.000000
vt 0.208333 0.000000
vt 0.091934 0.000000
vt 0.130040 0.000000
vt 0.216667 0.000000
vt 0.225000 0.000000
vt 0.233333 0.000000
vt 0.508333 0.000000
vt 0.241667 0.000000
vt 0.250000 0.000000
vt 0.833730 0.000000
vt 0.500000 0.000000
vt 0.806668 0.000000
vt 0.258333 0.000000
vt 0.791667 0.000000
vt 0.779088 0.000000
vt 0.266667 0.000000
vt 0.853913 0.000000
vt 0.762432 0.000000
vt 0.876765 0.000000
vt 0.745780 0.000000
vt 0.491667 0.000000
vt 0.275000 0.000000
vt 0.900000 0.000000
vt 0.908333 0.000000
vt 0.729147 0.000000
vt 0.283333 0.000000
vt 0.916667 0.000000
vt 0.716667 0.000000
vt 0.483333 0.000000
vt 0.704510 0.000000
vt 0.291667 0.000000
vt 0.925000 0.000000
vt 0.475000 0.000000
vt 0.687316 0.000000
vt 0.300000 0.000000
vt 0.933333 0.000000
vt 0.941667 0.000000
vt 0.308333 0.000000
vt 0.466667 0.000000
vt 0.670704 0.000000
vt 0.950000 0.000000
vt 0.316667 0.000000
vt 0.654120 0.000000
vt 0.458333 0.000000
vt 0.958333 0.000000
vt 0.966667 0.000000
vt 0.325000 0.000000
vt 0.641667 0.000000
vt 0.450000 0.000000
vt 0.975000 0.000000
vt 0.629262 0.000000
vt 0.983333 0.000000
vt 0.333333 0.000000
vt 0.612669 0.000000
vt 0.991667 0.000000
vt 1.000000 0.000000
vt 0.441667 0.000000
vt 0.341667 0.000000
vt 0.433333 0.000000
vt 0.350000 0.000000
vt 0.425000 0.000000
vt 0.358333 0.000000
vt 0.416667 0.000000
vt 0.366667 0.000000
vt 0.408333 0.000000
vt 0.375000 0.000000
vt 0.400000 0.000000
vt 0.383333 0.000000
vt 0.391667 0.000000
vt 0.032044 1.000000
vt 0.000000 1.000000
vt 0.000000 0.000000
vt 0.088103 1.000000
vt 0.035981 0.000000
vt 0.152053 1.000000
vt 0.092028 0.000000
vt 0.256974 1.000000
vt 0.154684 0.000000
vt 0.347454 1.000000
vt 0.274296 0.000000
vt 0.401926 1.000000
vt 0.351356 0.000000
vt 0.456821 1.000000
vt 0.405846 0.000000
vt 0.511351 1.000000
vt 0.460825 0.000000
vt 0.566668 1.000000
vt 0.515277 0.000000
vt 0.621509 1.000000
vt 0.570619 0.000000
vt 0.663389 1.000000
vt 0.625327 0.000000
vt 0.690626 1.000000
vt 0.665824 0.000000
vt 0.717860 1.000000
vt 0.693066 0.000000
vt 0.757360 1.000000
vt 0.720299 0.000000
vt 0.805351 1.000000
vt 0.788258 0.000000
vt 0.841147 1.000000
vt 0.837140 0.000000
vt 0.881085 1.000000
vt 0.935818 1.000000
vt 0.884972 0.000000
vt 0.972603 1.000000
vt 0.939706 0.000000
vt 0.986342 1.000000
vt 0.972603 0.000000
vt 0.101461 1.000000
vt 0.029535 1.000000
vt 0.086678 0.000000
vt 0.172671 1.000000
vt 0.258555 1.000000
vt 0.178578 0.000000
vt 0.320967 1.000000
vt 0.325582 0.000000
vt 0.381803 1.000000
vt 0.465233 1.000000
vt 0.408522 0.000000
vt 0.580531 1.000000
vt 0.483747 0.000000
vt 0.723552 1.000000
vt 0.603353 0.000000
vt 0.780004 1.000000
vt 0.728622 0.000000
vt 0.861904 1.000000
vt 0.826765 0.000000
vt 0.944302 1.000000
vt 0.909393 0.000000
vt 1.000000 1.000000
vt 0.984578 0.000000
vt 0.747570 0.000000
vt 0.986396 0.000000
vt 0.012677 0.000000
vt 0.253486 0.000000
vt 0.762797 0.000000
vn 0.0000 0.0000 1.0000
vn -0.0000 0.0002 1.0000
vn -0.0000 -0.0000 -1.0000
vn 0.6646 0.7472 -0.0026
vn 0.9900 0.1410 -0.0021
vn 0.9905 0.1373 0.0015
vn 0.8216 0.5701 -0.0047
vn 0.6774 0.7356 0.0034
vn 0.7381 -0.6746 0.0062
vn 0.8324 0.5542 0.0020
vn -0.1697 -0.9855 0.0072
vn 0.7461 -0.6658 -0.0095
vn 0.3100 -0.9507 0.0103
vn -0.1160 -0.9932 -0.0095
vn 0.7505 -0.6608 0.0087
vn 0.3517 -0.9361 -0.0087
vn 0.9791 -0.2034 0.0086
vn 0.7774 -0.6289 -0.0087
vn 0.9528 0.3035 0.0083
vn 0.9867 -0.1621 -0.0085
vn 0.6801 0.7331 0.0085
vn 0.9393 0.3430 -0.0087
vn 0.2409 0.9705 0.0075
vn 0.6495 0.7603 -0.0085
vn -0.1659 0.9861 0.0058
vn 0.2022 0.9793 -0.0075
vn -0.4468 0.8946 0.0044
vn -0.1923 0.9813 -0.0053
vn -0.6942 0.7198 0.0054
vn -0.4698 0.8828 -0.0044
vn -0.9084 0.4180 0.0119
vn -0.7041 0.7101 0.0050
vn -0.9996 0.0273 0.0107
vn -0.9881 0.1538 -0.0107
vn -0.9728 -0.2317 0.0048
vn -0.9800 -0.1984 -0.0120
vn -0.8875 -0.4609 0.0010
vn -0.7179 -0.6962 0.0024
vn -0.8737 -0.4864 -0.0045
vn 0.1232 -0.9924 0.0045
vn -0.6982 -0.7159 -0.0043
vn 0.1260 -0.9920 -0.0003
vn -0.7121 -0.7021 -0.0064
vn -0.2858 -0.9581 -0.0210
vn -0.6327 -0.7741 0.0201
vn -0.9481 -0.3179 0.0025
vn -0.9848 0.1739 -0.0029
vn -0.9527 -0.3038 0.0029
vn -0.8274 0.5615 -0.0085
vn -0.8031 0.5957 0.0154
vn -0.5319 0.8467 -0.0139
vn -0.1122 0.9936 -0.0130
vn -0.4097 0.9120 0.0178
vn 0.2550 0.9669 -0.0110
vn -0.0238 0.9996 0.0128
vn 0.8055 0.5925 -0.0122
vn 0.3069 0.9517 0.0056
vn 0.9947 -0.1006 -0.0197
vn 0.8252 0.5649 -0.0015
vn 0.7784 -0.6269 -0.0327
vn 0.9078 -0.4187 0.0236
vn 0.2715 -0.9620 -0.0301
vn 0.5131 -0.8577 0.0320
vn -0.0598 -0.9977 0.0313
vn -0.8659 0.5001 -0.0078
vn -0.9877 0.1562 0.0049
vn 0.9999 0.0097 0.0092
usemtl None.002
s off
f 1/1/1 2/2/1 3/3/1
f 4/4/1 1/1/1 3/3/1
f 5/5/1 4/4/1 3/3/1
f 5/5/1 3/3/1 6/6/1
f 5/5/1 6/6/1 7/7/1
f 8/8/1 5/5/1 7/7/1
f 8/8/1 7/7/1 9/9/1
f 10/10/1 8/8/1 9/9/1
f 10/10/1 9/9/1 11/11/1
f 12/12/1 10/10/1 11/11/1
f 12/12/1 11/11/1 13/13/1
f 14/14/1 12/12/1 13/13/1
f 15/15/1 14/14/1 13/13/1
f 15/15/1 13/13/1 16/16/1
f 17/17/1 15/15/1 16/16/1
f 20/18/1 18/19/1 19/20/1
f 20/18/1 19/20/1 21/21/1
f 17/17/1 16/16/1 22/22/1
f 23/23/1 20/18/1 21/21/1
f 23/23/1 21/21/1 24/24/1
f 23/23/1 24/24/1 25/25/1
f 22/22/1 23/23/1 25/25/1
f 22/22/1 25/25/1 26/26/1
f 17/17/1 22/22/1 26/26/1
f 27/27/1 17/17/1 26/26/1
f 27/27/1 26/26/1 28/28/1
f 27/27/1 28/28/1 29/29/1
f 30/30/1 27/27/1 31/31/1
f 31/31/1 27/27/1 32/32/1
f 32/32/1 27/27/1 29/29/1
f 32/32/1 29/29/1 33/33/1
f 34/34/2 32/32/2 33/33/2
f 35/35/1 34/34/1 33/33/1
f 35/35/1 33/33/1 36/36/1
f 30/30/1 31/31/1 37/37/1
f 38/38/1 35/35/1 36/36/1
f 30/30/1 37/37/1 39/39/1
f 40/40/1 38/38/1 36/36/1
f 41/41/1 30/30/1 39/39/1
f 40/40/1 36/36/1 42/42/1
f 41/41/1 39/39/1 43/43/1
f 41/41/1 43/43/1 44/44/1
f 45/45/1 40/40/1 42/42/1
f 45/45/1 42/42/1 46/46/1
f 41/41/1 44/44/1 47/47/1
f 48/48/1 45/45/1 46/46/1
f 49/49/1 41/41/1 47/47/1
f 50/50/1 48/48/1 46/46/1
f 50/50/1 46/46/1 51/51/1
f 49/49/1 47/47/1 52/52/1
f 53/53/1 49/49/1 52/52/1
f 54/54/1 50/50/1 51/51/1
f 54/54/1 51/51/1 55/55/1
f 53/53/1 52/52/1 56/56/1
f 53/53/1 56/56/1 57/57/1
f 54/54/1 55/55/1 58/58/1
f 59/59/1 53/53/1 57/57/1
f 60/60/1 54/54/1 58/58/1
f 59/59/1 57/57/1 61/61/1
f 60/60/1 58/58/1 62/62/1
f 63/63/1 60/60/1 62/62/1
f 64/64/1 59/59/1 61/61/1
f 64/64/1 61/61/1 65/65/1
f 64/64/1 65/65/1 66/66/1
f 63/63/1 62/62/1 67/67/1
f 68/68/1 63/63/1 67/67/1
f 69/69/1 64/64/1 66/66/1
f 69/69/1 66/66/1 70/70/1
f 71/71/1 68/68/1 67/67/1
f 69/69/1 70/70/1 72/72/1
f 71/71/1 67/67/1 73/73/1
f 74/74/1 71/71/1 73/73/1
f 69/69/1 72/72/1 75/75/1
f 69/69/1 75/75/1 76/76/1
f 76/76/1 74/74/1 73/73/1
f 69/69/1 76/76/1 73/73/1
f 77/77/1 69/69/1 73/73/1
f 77/77/1 73/73/1 78/78/1
f 79/79/1 77/77/1 78/78/1
f 79/79/1 78/78/1 80/80/1
f 81/81/1 79/79/1 80/80/1
f 81/81/1 80/80/1 82/82/1
f 83/83/1 81/81/1 82/82/1
f 83/83/1 82/82/1 84/84/1
f 85/85/1 83/83/1 84/84/1
f 85/85/1 84/84/1 86/86/1
f 87/87/1 85/85/1 86/86/1
f 87/87/1 86/86/1 88/88/1
f 89/89/1 87/87/1 88/88/1
f 90/90/3 91/91/3 92/92/3
f 90/90/3 92/92/3 93/93/3
f 90/90/3 93/93/3 94/94/3
f 95/95/3 90/90/3 94/94/3
f 96/96/3 95/95/3 94/94/3
f 96/96/3 94/94/3 97/97/3
f 98/98/3 96/96/3 97/97/3
f 98/98/3 97/97/3 99/99/3
f 100/100/3 98/98/3 99/99/3
f 100/100/3 99/99/3 101/101/3
f 102/102/3 100/100/3 101/101/3
f 102/102/3 101/101/3 103/103/3
f 102/102/3 103/103/3 104/104/3
f 105/105/3 102/102/3 104/104/3
f 105/105/3 104/104/3 106/106/3
f 107/107/3 108/108/3 109/109/3
f 110/110/3 107/107/3 109/109/3
f 111/111/3 105/105/3 106/106/3
f 110/110/3 109/109/3 112/112/3
f 113/113/3 110/110/3 112/112/3
f 114/114/3 113/113/3 112/112/3
f 114/114/3 112/112/3 111/111/3
f 115/115/3 114/114/3 111/111/3
f 115/115/3 111/111/3 106/106/3
f 115/115/3 106/106/3 116/116/3
f 117/117/3 115/115/3 116/116/3
f 118/118/3 117/117/3 116/116/3
f 119/119/3 116/116/3 120/120/3
f 121/121/3 116/116/3 119/119/3
f 118/118/3 116/116/3 121/121/3
f 122/122/3 118/118/3 121/121/3
f 122/122/3 121/121/3 123/123/3
f 122/122/3 123/123/3 124/124/3
f 125/125/3 122/122/3 124/124/3
f 126/126/3 119/119/3 120/120/3
f 125/125/3 124/124/3 127/127/3
f 128/128/3 126/126/3 120/120/3
f 125/125/3 127/127/3 129/129/3
f 128/128/3 120/120/3 130/130/3
f 131/131/3 125/125/3 129/129/3
f 132/132/3 128/128/3 130/130/3
f 133/133/3 132/132/3 130/130/3
f 131/131/3 129/129/3 134/134/3
f 135/135/3 131/131/3 134/134/3
f 136/136/3 133/133/3 130/130/3
f 135/135/3 134/134/3 137/137/3
f 136/136/3 130/130/3 138/138/3
f 135/135/3 137/137/3 139/139/3
f 140/140/3 135/135/3 139/139/3
f 141/141/3 136/136/3 138/138/3
f 141/141/3 138/138/3 142/142/3
f 140/140/3 139/139/3 143/143/3
f 144/144/3 140/140/3 143/143/3
f 145/145/3 141/141/3 142/142/3
f 146/146/3 145/145/3 142/142/3
f 147/147/3 144/144/3 143/143/3
f 146/146/3 142/142/3 148/148/3
f 147/147/3 143/143/3 149/149/3
f 150/150/3 146/146/3 148/148/3
f 151/151/3 147/147/3 149/149/3
f 151/151/3 149/149/3 152/152/3
f 150/150/3 148/148/3 153/153/3
f 154/154/3 150/150/3 153/153/3
f 155/155/3 154/154/3 153/153/3
f 156/156/3 151/151/3 152/152/3
f 156/156/3 152/152/3 157/157/3
f 155/155/3 153/153/3 158/158/3
f 159/159/3 155/155/3 158/158/3
f 156/156/3 157/157/3 160/160/3
f 161/161/3 159/159/3 158/158/3
f 162/162/3 156/156/3 160/160/3
f 162/162/3 160/160/3 163/163/3
f 164/164/3 161/161/3 158/158/3
f 165/165/3 164/164/3 158/158/3
f 162/162/3 163/163/3 165/165/3
f 162/162/3 165/165/3 158/158/3
f 162/162/3 158/158/3 166/166/3
f 167/167/3 162/162/3 166/166/3
f 167/167/3 166/166/3 168/168/3
f 169/169/3 167/167/3 168/168/3
f 169/169/3 168/168/3 170/170/3
f 171/171/3 169/169/3 170/170/3
f 171/171/3 170/170/3 172/172/3
f 173/173/3 171/171/3 172/172/3
f 173/173/3 172/172/3 174/174/3
f 175/175/3 173/173/3 174/174/3
f 175/175/3 174/174/3 176/176/3
f 177/177/3 175/175/3 176/176/3
f 177/177/3 176/176/3 178/178/3
s 1
f 179/179/4 180/180/5 181/181/6
f 183/182/7 179/179/4 182/183/8
f 185/184/9 183/182/7 184/185/10
f 187/186/11 185/184/9 186/187/12
f 189/188/13 187/186/11 188/189/14
f 191/190/15 189/188/13 190/191/16
f 193/192/17 191/190/15 192/193/18
f 195/194/19 193/192/17 194/195/20
f 197/196/21 195/194/19 196/197/22
f 199/198/23 197/196/21 198/199/24
f 201/200/25 199/198/23 200/201/26
f 203/202/27 201/200/25 202/203/28
f 205/204/29 203/202/27 204/205/30
f 207/206/31 205/204/29 206/207/32
f 210/208/33 207/206/31 209/209/34
f 211/210/35 210/208/33 212/211/36
f 213/212/37 211/210/35 212/211/36
f 215/213/38 213/212/37 214/214/39
f 217/215/40 215/213/38 216/216/41
f 180/217/5 217/215/40 218/218/42
f 222/219/43 219/220/44 221/221/45
f 223/222/46 222/219/43 221/221/45
f 225/223/47 223/222/46 224/224/48
f 227/225/49 225/223/47 228/226/50
f 229/227/51 227/225/49 228/226/50
f 231/228/52 229/227/51 230/229/53
f 233/230/54 231/228/52 232/231/55
f 235/232/56 233/230/54 234/233/57
f 237/234/58 235/232/56 236/235/59
f 240/236/60 237/234/58 239/237/61
f 242/238/62 240/236/60 241/239/63
f 219/240/44 242/238/62 220/241/64
f 179/179/4 181/181/6 182/183/8
f 183/182/7 182/183/8 184/185/10
f 185/184/9 184/185/10 186/187/12
f 187/186/11 186/187/12 188/189/14
f 189/188/13 188/189/14 190/191/16
f 191/190/15 190/191/16 192/193/18
f 193/192/17 192/193/18 194/195/20
f 195/194/19 194/195/20 196/197/22
f 197/196/21 196/197/22 198/199/24
f 199/198/23 198/199/24 200/201/26
f 201/200/25 200/201/26 202/203/28
f 203/202/27 202/203/28 204/205/30
f 205/204/29 204/205/30 206/207/32
f 207/206/31 206/207/32 208/242/65
f 207/206/31 208/242/65 209/209/34
f 210/208/33 209/209/34 212/211/36
f 213/212/37 212/211/36 214/214/39
f 215/213/38 214/214/39 216/216/41
f 217/215/40 216/216/41 218/218/42
f 180/217/5 218/218/42 181/243/6
f 219/220/44 220/244/64 221/221/45
f 223/222/46 221/221/45 224/224/48
f 225/223/47 224/224/48 226/245/66
f 225/223/47 226/245/66 228/226/50
f 229/227/51 228/226/50 230/229/53
f 231/228/52 230/229/53 232/231/55
f 233/230/54 232/231/55 234/233/57
f 235/232/56 234/233/57 236/235/59
f 237/234/58 236/235/59 238/246/67
f 237/234/58 238/246/67 239/237/61
f 240/236/60 239/237/61 241/239/63
f 242/238/62 241/239/63 220/241/64
