# Blender v2.83.5 OBJ File: ''
# www.blender.org
mtllib 7.mtl
o テキスト
v -18.259995 47.139999 7.500003
v 19.240021 -36.860046 7.500020
v -25.009998 -36.860046 7.500020
v -25.009998 -50.810051 7.500022
v 41.140030 -50.810051 7.500022
v -5.209988 52.840000 7.500002
v -18.259995 47.139996 -7.500001
v 19.240021 -36.860046 -7.499985
v -25.009998 -36.860046 -7.499985
v -25.009998 -50.810051 -7.499982
v 41.140030 -50.810051 -7.499982
v -5.209988 52.839996 -7.500003
v -18.259995 47.139996 -7.500001
v -18.259995 47.139999 7.500003
v 19.240021 -36.860046 -7.499985
v 19.240021 -36.860046 7.500020
v -25.009998 -36.860046 -7.499985
v -25.009998 -36.860046 7.500020
v -25.009998 -50.810051 -7.499982
v -25.009998 -50.810051 7.500022
v 41.140030 -50.810051 -7.499982
v 41.140030 -50.810051 7.500022
v -5.209988 52.839996 -7.500003
v -5.209988 52.840000 7.500002
vt 0.400000 0.000000
vt 0.600000 0.000000
vt 0.800000 0.000000
vt 0.200000 0.000000
vt 1.000000 0.000000
vt 0.000000 0.000000
vt 0.800000 0.000000
vt 0.600000 0.000000
vt 0.400000 0.000000
vt 0.200000 0.000000
vt 1.000000 0.000000
vt 0.000000 0.000000
vt 0.166667 1.000000
vt 0.000000 1.000000
vt 0.000000 0.000000
vt 0.333333 1.000000
vt 0.166667 0.000000
vt 0.500000 1.000000
vt 0.333333 0.000000
vt 0.666667 1.000000
vt 0.500000 0.000000
vt 0.833333 1.000000
vt 0.666667 0.000000
vt 1.000000 1.000000
vt 0.833333 0.000000
vt 1.000000 0.000000
vn 0.0000 0.0000 1.0000
vn 0.0000 -0.0000 -1.0000
vn -0.8389 0.5442 0.0000
vn -0.9325 0.3612 0.0000
vn -0.7071 0.7071 0.0000
vn -0.7071 -0.7071 0.0000
vn 0.8391 -0.5439 0.0000
vn 0.3609 0.9326 0.0000
usemtl None
s off
f 3/1/1 4/2/1 5/3/1
f 3/1/1 5/3/1 2/4/1
f 2/4/1 5/3/1 6/5/1
f 1/6/1 2/4/1 6/5/1
f 11/7/2 10/8/2 9/9/2
f 8/10/2 11/7/2 9/9/2
f 12/11/2 11/7/2 8/10/2
f 12/11/2 8/10/2 7/12/2
s 1
f 16/13/3 14/14/4 13/15/4
f 18/16/5 16/13/3 15/17/3
f 20/18/6 18/16/5 17/19/5
f 22/20/7 20/18/6 19/21/6
f 24/22/8 22/20/7 21/23/7
f 14/24/4 24/22/8 23/25/8
f 16/13/3 13/15/4 15/17/3
f 18/16/5 15/17/3 17/19/5
f 20/18/6 17/19/5 19/21/6
f 22/20/7 19/21/6 21/23/7
f 24/22/8 21/23/7 23/25/8
f 14/24/4 23/25/8 13/26/4
