# Blender v2.83.5 OBJ File: ''
# www.blender.org
mtllib 9_50.mtl
o テキスト.005
v -4.484116 -47.823158 7.500012
v 0.100086 -48.130013 7.500012
v 4.710850 -47.804756 7.500012
v -8.773525 -46.937653 7.500012
v 9.073700 -46.852928 7.500012
v -12.748352 -45.526100 7.500011
v 13.159462 -45.310478 7.500012
v -16.388805 -43.641121 7.500012
v 16.938976 -43.213341 7.500012
v -19.675089 -41.335304 7.500012
v 20.383076 -40.597458 7.500011
v -22.587418 -38.661255 7.500012
v 23.462593 -37.498764 7.500012
v -25.105991 -35.671585 7.500011
v 26.148354 -33.953186 7.500011
v -27.211029 -32.418900 7.500012
v -1.978649 -34.041725 7.500011
v 0.400085 -34.180008 7.500011
v 2.721699 -34.006050 7.500011
v -5.329776 -33.365643 7.500012
v 4.948002 -33.500839 7.500012
v 28.411201 -29.996675 7.500011
v 7.058674 -32.689384 7.500012
v -9.228825 -31.569008 7.500009
v 9.033417 -31.596682 7.500012
v -28.882730 -28.955797 7.500011
v 11.705006 -29.526178 7.500012
v -12.405322 -28.901960 7.500012
v 30.221962 -25.665171 7.500010
v -30.101307 -25.334871 7.500010
v 14.610068 -25.938648 7.500010
v -14.738889 -25.478357 7.500011
v 31.551476 -20.994593 7.500010
v -30.846968 -21.608751 7.500010
v 16.596479 -21.672356 7.500010
v -16.110519 -21.410927 7.500011
v -31.099916 -17.830011 7.500011
v 32.370575 -16.020891 7.500010
v 17.344093 -18.172709 7.500011
v -16.399916 -17.980005 7.500011
v 17.517370 -14.129177 7.500011
v -16.240885 -15.805093 7.500010
v -30.839672 -13.745027 7.500010
v 32.650085 -10.780007 7.500010
v -15.777693 -13.718202 7.500010
v -30.080471 -9.837646 7.500010
v -15.031164 -11.738603 7.500010
v 17.242683 -10.285507 7.500010
v -13.466840 -9.010077 7.500010
v 32.299751 -4.530442 7.500010
v -28.854603 -6.141728 7.500010
v 16.757484 -7.485372 7.500010
v -10.516935 -5.913383 7.500010
v 14.672871 -6.118967 7.500010
v -27.194359 -2.691121 7.500010
v 11.872295 -4.621490 7.500010
v -6.802715 -3.597399 7.500010
v 31.272316 1.804019 7.500010
v 9.107192 -3.469876 7.500011
v 5.117712 -2.317921 7.500007
v -2.499192 -2.219586 7.500008
v -25.132034 0.480319 7.500010
v 1.373264 -1.921994 7.500007
v -22.699915 3.338740 7.500010
v 29.603218 8.164523 7.500010
v -19.930296 5.850286 7.500010
v -16.855469 7.981101 7.500010
v 13.738307 7.702101 7.500010
v 12.866928 10.920604 7.500010
v -13.507725 9.697333 7.500010
v 27.327869 14.492217 7.500010
v 10.784254 9.213732 7.500010
v 6.844243 10.694648 7.500011
v -9.919357 10.965129 7.500010
v 10.987197 15.795865 7.500010
v -6.122654 11.750632 7.500010
v 2.663919 11.623496 7.500010
v -1.222599 12.035305 7.500010
v 24.481689 20.728239 7.500010
v 7.250349 22.467165 7.500010
v 21.100090 26.813744 7.500009
v 2.262364 29.094332 7.500009
v 17.218491 32.689877 7.500009
v -3.916599 35.553265 7.500010
v 12.872311 38.297775 7.500009
v -11.226009 41.721188 7.500008
v 8.096962 43.578590 7.500009
v -17.449915 46.070000 7.500009
v 2.927864 48.473469 7.500009
v -8.449915 56.869999 7.500008
v -2.599567 52.923557 7.500009
v 4.710850 -47.804756 -7.499987
v 0.100086 -48.130013 -7.499987
v -4.484116 -47.823158 -7.499987
v -8.773525 -46.937653 -7.499987
v 9.073700 -46.852928 -7.499987
v -12.748352 -45.526100 -7.499988
v 13.159462 -45.310478 -7.499987
v -16.388805 -43.641121 -7.499987
v 16.938976 -43.213341 -7.499987
v -19.675089 -41.335304 -7.499987
v 20.383076 -40.597458 -7.499988
v -22.587418 -38.661255 -7.499987
v 23.462593 -37.498764 -7.499987
v -25.105991 -35.671585 -7.499988
v 26.148354 -33.953186 -7.499988
v -1.978649 -34.041725 -7.499988
v -27.211029 -32.418900 -7.499987
v 0.400085 -34.180008 -7.499988
v 2.721699 -34.006050 -7.499988
v -5.329776 -33.365643 -7.499988
v 4.948002 -33.500839 -7.499987
v 28.411201 -29.996672 -7.499988
v 7.058674 -32.689384 -7.499987
v -9.228825 -31.569004 -7.499990
v 9.033417 -31.596678 -7.499987
v -28.882730 -28.955793 -7.499988
v 11.705006 -29.526175 -7.499987
v -12.405322 -28.901957 -7.499987
v 30.221962 -25.665167 -7.499988
v -30.101307 -25.334867 -7.499988
v 14.610068 -25.938644 -7.499989
v -14.738889 -25.478354 -7.499988
v 31.551476 -20.994589 -7.499989
v -30.846968 -21.608747 -7.499989
v 16.596479 -21.672352 -7.499989
v -16.110519 -21.410923 -7.499989
v -31.099916 -17.830008 -7.499988
v 32.370575 -16.020887 -7.499989
v 17.344093 -18.172705 -7.499988
v -16.399916 -17.980001 -7.499988
v 17.517370 -14.129175 -7.499989
v -16.240885 -15.805091 -7.499989
v -30.839672 -13.745025 -7.499989
v 32.650085 -10.780005 -7.499989
v -15.777693 -13.718200 -7.499989
v -30.080471 -9.837645 -7.499989
v -15.031164 -11.738601 -7.499989
v 17.242683 -10.285505 -7.499990
v -13.466840 -9.010075 -7.499990
v 32.299751 -4.530439 -7.499989
v -28.854603 -6.141726 -7.499989
v 16.757484 -7.485369 -7.499989
v -10.516935 -5.913380 -7.499990
v 14.672871 -6.118964 -7.499990
v -27.194359 -2.691119 -7.499989
v 11.872295 -4.621488 -7.499989
v -6.802715 -3.597397 -7.499989
v 31.272316 1.804021 -7.499989
v 9.107192 -3.469873 -7.499989
v 5.117712 -2.317919 -7.499992
v -2.499192 -2.219584 -7.499992
v -25.132034 0.480321 -7.499989
v 1.373264 -1.921992 -7.499992
v -22.699915 3.338742 -7.499990
v 29.603218 8.164525 -7.499989
v -19.930296 5.850289 -7.499989
v 13.738307 7.702104 -7.499989
v -16.855469 7.981103 -7.499989
v 12.866928 10.920606 -7.499989
v -13.507725 9.697335 -7.499989
v 27.327869 14.492219 -7.499989
v 10.784254 9.213734 -7.499989
v 6.844243 10.694650 -7.499989
v -9.919357 10.965131 -7.499989
v 10.987197 15.795867 -7.499989
v -6.122654 11.750634 -7.499989
v 2.663919 11.623498 -7.499990
v -1.222599 12.035307 -7.499990
v 24.481689 20.728243 -7.499990
v 7.250361 22.467148 -7.499990
v 21.100090 26.813744 -7.499990
v 2.262382 29.094309 -7.499990
v 17.218491 32.689873 -7.499990
v -3.916537 35.553204 -7.499990
v 12.872311 38.297771 -7.499990
v -11.226113 41.721264 -7.499991
v 8.096962 43.578587 -7.499990
v -17.449915 46.069996 -7.499990
v 2.927864 48.473465 -7.499990
v -8.449915 56.869995 -7.499991
v -2.599567 52.923553 -7.499990
v -7.798379 39.142590 7.500009
v -6.761756 38.265282 -7.499990
v 4.766495 26.191309 7.500010
v 5.471229 25.249796 -7.499989
v 10.846757 16.089140 7.500010
v 11.117816 15.503701 -7.499989
v 13.766456 7.887055 7.500010
v 13.822232 7.668409 -7.499989
v 8.049841 10.365020 -7.499989
v 5.650953 11.024671 7.500010
v -2.047461 12.152430 7.500010
v -0.135802 12.024100 -7.499989
v -14.800055 9.440784 7.500010
v -10.388727 11.001672 -7.499989
v -18.717421 6.831379 -7.499989
v -26.159599 -0.456069 7.500010
v -26.755737 -1.371831 -7.499989
v -30.509995 -11.420279 7.500010
v -30.645033 -12.115162 -7.499989
v -31.064053 -21.123781 7.500010
v -30.939407 -22.066938 -7.499989
v -26.733355 -33.805714 7.500011
v -26.122480 -34.748493 -7.499988
v -15.168060 -44.723629 7.500012
v -14.121539 -45.264042 -7.499987
v -2.603513 -48.097031 7.500012
v -1.787382 -48.151459 -7.499987
v 8.583522 -47.205261 7.500012
v 9.652686 -46.888039 -7.499987
v 18.403912 -42.279140 7.500012
v 19.017954 -41.814590 -7.499987
v 24.635729 -36.175282 7.500012
v 25.114616 -35.546291 -7.499987
v 31.036585 -24.285320 7.500010
v 31.423782 -22.946377 -7.499989
v 32.667137 -8.296393 7.500010
v 32.607372 -7.188643 -7.499989
v 30.768909 4.274420 7.500010
v 30.478146 5.398047 -7.499989
v 26.324947 17.000914 7.500010
v 25.823914 18.104113 -7.499989
v 15.952049 34.964668 7.500009
v 14.700130 36.579517 -7.499990
v 0.639292 50.493656 7.500009
v -0.339288 51.278427 -7.499990
v -8.449915 56.869999 7.500008
v -17.449915 46.070000 7.500009
v -8.449915 56.869995 -7.499991
v -17.449915 46.069996 -7.499990
v 3.410566 -1.977574 7.500010
v 7.999480 -2.913019 -7.499988
v 10.309421 -3.894427 7.500010
v 16.721006 -7.352188 7.500010
v 17.036648 -7.645005 -7.499989
v 17.474352 -12.143901 7.500010
v 17.393854 -19.341764 -7.499989
v 17.063801 -20.226547 7.500011
v 13.558936 -27.679012 7.500011
v 13.139126 -28.196077 -7.499988
v 8.226948 -32.125473 7.500012
v 7.875300 -32.318871 -7.499987
v 2.074593 -34.280037 7.500011
v 1.440880 -34.333813 -7.499988
v -7.166625 -32.819408 7.500012
v -7.725799 -32.559940 -7.499987
v -13.629355 -27.597080 7.500011
v -13.965242 -27.104931 -7.499988
v -16.535442 -19.391840 7.500010
v -16.574392 -18.723150 -7.499988
v -14.892392 -11.053228 7.500010
v -15.023828 -11.504637 -7.499989
v -9.085675 -4.709203 7.500010
v -10.374211 -5.630899 -7.499989
v -2.699667 -2.261693 7.500010
v -1.751845 -1.909940 -7.499989
vt 0.348485 0.000000
vt 0.356061 0.000000
vt 0.363636 0.000000
vt 0.340909 0.000000
vt 0.371212 0.000000
vt 0.333333 0.000000
vt 0.378788 0.000000
vt 0.325758 0.000000
vt 0.386364 0.000000
vt 0.318182 0.000000
vt 0.393939 0.000000
vt 0.310606 0.000000
vt 0.401515 0.000000
vt 0.303030 0.000000
vt 0.409091 0.000000
vt 0.295455 0.000000
vt 0.825758 0.000000
vt 0.818182 0.000000
vt 0.810606 0.000000
vt 0.837211 0.000000
vt 0.803030 0.000000
vt 0.416667 0.000000
vt 0.795455 0.000000
vt 0.852332 0.000000
vt 0.787879 0.000000
vt 0.287879 0.000000
vt 0.776596 0.000000
vt 0.867444 0.000000
vt 0.424242 0.000000
vt 0.280303 0.000000
vt 0.761380 0.000000
vt 0.882546 0.000000
vt 0.431818 0.000000
vt 0.272727 0.000000
vt 0.746172 0.000000
vt 0.897642 0.000000
vt 0.265152 0.000000
vt 0.439394 0.000000
vt 0.734848 0.000000
vt 0.909091 0.000000
vt 0.707724 0.000000
vt 0.916667 0.000000
vt 0.257576 0.000000
vt 0.446970 0.000000
vt 0.924242 0.000000
vt 0.250000 0.000000
vt 0.931818 0.000000
vt 0.663051 0.000000
vt 0.943097 0.000000
vt 0.454545 0.000000
vt 0.242424 0.000000
vt 0.636421 0.000000
vt 0.958287 0.000000
vt 0.625026 0.000000
vt 0.234848 0.000000
vt 0.609855 0.000000
vt 0.973482 0.000000
vt 0.462121 0.000000
vt 0.594672 0.000000
vt 0.571558 0.000000
vt 0.988651 0.000000
vt 0.227273 0.000000
vt 0.851008 0.000000
vt 0.219697 0.000000
vt 0.469697 0.000000
vt 0.212121 0.000000
vt 0.204545 0.000000
vt 0.083482 0.000000
vt 0.075758 0.000000
vt 0.196970 0.000000
vt 0.477273 0.000000
vt 0.102140 0.000000
vt 0.124902 0.000000
vt 0.189394 0.000000
vt 0.064635 0.000000
vt 0.181818 0.000000
vt 0.147806 0.000000
vt 0.169115 0.000000
vt 0.484848 0.000000
vt 0.049449 0.000000
vt 0.492424 0.000000
vt 0.034255 0.000000
vt 0.500000 0.000000
vt 0.019062 0.000000
vt 0.507576 0.000000
vt 0.003873 0.000000
vt 0.515152 0.000000
vt 0.545455 0.000000
vt 0.522727 0.000000
vt 0.537879 0.000000
vt 0.530303 0.000000
vt 0.363636 0.000000
vt 0.356061 0.000000
vt 0.348485 0.000000
vt 0.340909 0.000000
vt 0.371212 0.000000
vt 0.333333 0.000000
vt 0.378788 0.000000
vt 0.325758 0.000000
vt 0.386364 0.000000
vt 0.318182 0.000000
vt 0.393939 0.000000
vt 0.310606 0.000000
vt 0.401515 0.000000
vt 0.303030 0.000000
vt 0.409091 0.000000
vt 0.825758 0.000000
vt 0.295455 0.000000
vt 0.818182 0.000000
vt 0.810606 0.000000
vt 0.837211 0.000000
vt 0.803030 0.000000
vt 0.416667 0.000000
vt 0.795455 0.000000
vt 0.852332 0.000000
vt 0.787879 0.000000
vt 0.287879 0.000000
vt 0.776596 0.000000
vt 0.867444 0.000000
vt 0.424242 0.000000
vt 0.280303 0.000000
vt 0.761380 0.000000
vt 0.882546 0.000000
vt 0.431818 0.000000
vt 0.272727 0.000000
vt 0.746172 0.000000
vt 0.897642 0.000000
vt 0.265152 0.000000
vt 0.439394 0.000000
vt 0.734848 0.000000
vt 0.909091 0.000000
vt 0.707724 0.000000
vt 0.916667 0.000000
vt 0.257576 0.000000
vt 0.446970 0.000000
vt 0.924242 0.000000
vt 0.250000 0.000000
vt 0.931818 0.000000
vt 0.663051 0.000000
vt 0.943097 0.000000
vt 0.454545 0.000000
vt 0.242424 0.000000
vt 0.636421 0.000000
vt 0.958287 0.000000
vt 0.625026 0.000000
vt 0.234848 0.000000
vt 0.609855 0.000000
vt 0.973482 0.000000
vt 0.462121 0.000000
vt 0.594672 0.000000
vt 0.571558 0.000000
vt 0.988651 0.000000
vt 0.227273 0.000000
vt 0.851008 0.000000
vt 0.219697 0.000000
vt 0.469697 0.000000
vt 0.212121 0.000000
vt 0.083482 0.000000
vt 0.204545 0.000000
vt 0.075758 0.000000
vt 0.196970 0.000000
vt 0.477273 0.000000
vt 0.102140 0.000000
vt 0.124902 0.000000
vt 0.189394 0.000000
vt 0.064635 0.000000
vt 0.181818 0.000000
vt 0.147806 0.000000
vt 0.169115 0.000000
vt 0.484848 0.000000
vt 0.049449 0.000000
vt 0.492424 0.000000
vt 0.034255 0.000000
vt 0.500000 0.000000
vt 0.019062 0.000000
vt 0.507576 0.000000
vt 0.003873 0.000000
vt 0.515152 0.000000
vt 0.545455 0.000000
vt 0.522727 0.000000
vt 0.537879 0.000000
vt 0.530303 0.000000
vt 0.074614 1.000000
vt 0.019304 1.000000
vt 0.023203 0.000000
vt 0.115658 1.000000
vt 0.078509 0.000000
vt 0.152839 1.000000
vt 0.118072 0.000000
vt 0.237818 1.000000
vt 0.213672 0.000000
vt 0.306353 1.000000
vt 0.295136 0.000000
vt 0.360855 1.000000
vt 0.344151 0.000000
vt 0.415773 1.000000
vt 0.377865 0.000000
vt 0.457683 1.000000
vt 0.419704 0.000000
vt 0.491319 1.000000
vt 0.460119 0.000000
vt 0.539233 1.000000
vt 0.494747 0.000000
vt 0.594170 1.000000
vt 0.543184 0.000000
vt 0.635786 1.000000
vt 0.598070 0.000000
vt 0.669588 1.000000
vt 0.638225 0.000000
vt 0.704115 1.000000
vt 0.673053 0.000000
vt 0.731458 1.000000
vt 0.706554 0.000000
vt 0.771260 1.000000
vt 0.733893 0.000000
vt 0.813644 1.000000
vt 0.775173 0.000000
vt 0.840860 1.000000
vt 0.816072 0.000000
vt 0.868407 1.000000
vt 0.843278 0.000000
vt 0.909041 1.000000
vt 0.870828 0.000000
vt 0.951092 1.000000
vt 0.912986 0.000000
vt 0.972603 1.000000
vt 0.953514 0.000000
vt 0.986301 1.000000
vt 0.972603 0.000000
vt 1.000000 1.000000
vt 0.986301 0.000000
vt 0.105806 1.000000
vt 0.022162 1.000000
vt 0.075786 0.000000
vt 0.182410 1.000000
vt 0.289708 1.000000
vt 0.189268 0.000000
vt 0.414383 1.000000
vt 0.407740 0.000000
vt 0.472986 1.000000
vt 0.523768 1.000000
vt 0.477793 0.000000
vt 0.571281 1.000000
vt 0.526732 0.000000
vt 0.639912 1.000000
vt 0.575805 0.000000
vt 0.705900 1.000000
vt 0.644660 0.000000
vt 0.773227 1.000000
vt 0.710644 0.000000
vt 0.838634 1.000000
vt 0.778229 0.000000
vt 0.905716 1.000000
vt 0.893690 0.000000
vt 0.956885 1.000000
vt 0.965125 0.000000
vt 0.987645 1.000000
vt 0.151295 0.000000
vt 1.000000 0.000000
vt 0.000000 0.000000
vt 0.835074 0.000000
vn 0.0000 0.0000 1.0000
vn 0.0000 0.0000 -1.0000
vn -0.7918 -0.6108 -0.0033
vn -0.6506 -0.7594 -0.0026
vn -0.6625 -0.7490 0.0025
vn -0.9043 -0.4270 -0.0035
vn -0.8034 -0.5954 0.0036
vn -0.6933 0.7206 0.0087
vn -0.9099 -0.4148 0.0017
vn 0.2521 0.9677 0.0094
vn 0.3134 0.9496 -0.0065
vn -0.0240 0.9996 0.0142
vn 0.0537 0.9985 -0.0126
vn -0.4466 0.8943 0.0260
vn -0.2718 0.9623 -0.0125
vn -0.8196 0.5726 0.0166
vn -0.5964 0.8026 -0.0084
vn -0.9768 0.2140 0.0060
vn -0.8482 0.5296 -0.0060
vn -0.9911 -0.1332 0.0062
vn -0.9822 0.1877 -0.0058
vn -0.8427 -0.5383 0.0083
vn -0.9862 -0.1656 -0.0064
vn -0.4895 -0.8720 0.0075
vn -0.8204 -0.5717 -0.0077
vn -0.0897 -0.9959 0.0067
vn -0.4532 -0.8914 -0.0078
vn 0.2665 -0.9638 0.0059
vn -0.0605 -0.9981 -0.0068
vn 0.5821 -0.8131 0.0058
vn 0.3010 -0.9536 -0.0061
vn 0.7987 -0.6017 0.0052
vn 0.6041 -0.7969 -0.0049
vn 0.9548 -0.2972 0.0059
vn 0.8139 -0.5809 -0.0058
vn 0.9997 0.0254 0.0051
vn 0.9649 -0.2624 -0.0059
vn 0.9707 0.2401 0.0036
vn 0.9988 0.0478 -0.0048
vn 0.9095 0.4157 0.0041
vn 0.9663 0.2572 -0.0033
vn 0.7984 0.6021 0.0037
vn 0.9023 0.4310 -0.0037
vn 0.6450 0.7642 0.0033
vn 0.7812 0.6242 -0.0036
vn -0.1333 0.9911 0.0023
vn 0.6334 0.7738 -0.0028
vn -0.9920 -0.1264 -0.0000
vn -0.1358 0.9907 -0.0000
vn -0.9923 -0.1241 0.0027
vn -0.3844 -0.9232 -0.0012
vn -0.1115 -0.9937 -0.0108
vn -0.2947 -0.9555 0.0138
vn -0.8101 -0.5862 -0.0027
vn -0.9986 -0.0525 -0.0093
vn -0.8455 -0.5338 0.0116
vn -0.9682 0.2502 -0.0065
vn -0.9778 0.2096 0.0085
vn -0.7942 0.6077 -0.0005
vn -0.4924 0.8703 -0.0049
vn -0.7780 0.6282 0.0056
vn -0.0920 0.9957 -0.0055
vn -0.4665 0.8845 0.0051
vn 0.4056 0.9140 -0.0067
vn -0.0558 0.9984 0.0061
vn 0.8160 0.5780 -0.0071
vn 0.4397 0.8981 0.0069
vn 0.9973 0.0737 -0.0073
vn 0.8382 0.5453 0.0071
vn 0.8938 -0.4483 -0.0107
vn 0.9992 0.0407 0.0027
vn 0.5564 -0.8309 -0.0060
vn 0.6118 -0.7910 0.0112
vn 0.2114 -0.9774 -0.0096
vn 0.1544 -0.9878 0.0179
vn -0.6661 0.7458 -0.0133
vn 0.9064 -0.4224 0.0048
usemtl None.005
s off
f 1/1/1 2/2/1 3/3/1
f 4/4/1 1/1/1 3/3/1
f 4/4/1 3/3/1 5/5/1
f 6/6/1 4/4/1 5/5/1
f 6/6/1 5/5/1 7/7/1
f 8/8/1 6/6/1 7/7/1
f 8/8/1 7/7/1 9/9/1
f 10/10/1 8/8/1 9/9/1
f 10/10/1 9/9/1 11/11/1
f 12/12/1 10/10/1 11/11/1
f 12/12/1 11/11/1 13/13/1
f 14/14/1 12/12/1 13/13/1
f 14/14/1 13/13/1 15/15/1
f 16/16/1 14/14/1 17/17/1
f 17/17/1 14/14/1 18/18/1
f 18/18/1 14/14/1 15/15/1
f 19/19/1 18/18/1 15/15/1
f 16/16/1 17/17/1 20/20/1
f 21/21/1 19/19/1 15/15/1
f 21/21/1 15/15/1 22/22/1
f 23/23/1 21/21/1 22/22/1
f 16/16/1 20/20/1 24/24/1
f 25/25/1 23/23/1 22/22/1
f 26/26/1 16/16/1 24/24/1
f 27/27/1 25/25/1 22/22/1
f 26/26/1 24/24/1 28/28/1
f 27/27/1 22/22/1 29/29/1
f 30/30/1 26/26/1 28/28/1
f 31/31/1 27/27/1 29/29/1
f 30/30/1 28/28/1 32/32/1
f 31/31/1 29/29/1 33/33/1
f 34/34/1 30/30/1 32/32/1
f 35/35/1 31/31/1 33/33/1
f 34/34/1 32/32/1 36/36/1
f 37/37/1 34/34/1 36/36/1
f 35/35/1 33/33/1 38/38/1
f 39/39/1 35/35/1 38/38/1
f 37/37/1 36/36/1 40/40/1
f 41/41/1 39/39/1 38/38/1
f 37/37/1 40/40/1 42/42/1
f 43/43/1 37/37/1 42/42/1
f 41/41/1 38/38/1 44/44/1
f 43/43/1 42/42/1 45/45/1
f 46/46/1 43/43/1 45/45/1
f 46/46/1 45/45/1 47/47/1
f 48/48/1 41/41/1 44/44/1
f 46/46/1 47/47/1 49/49/1
f 48/48/1 44/44/1 50/50/1
f 51/51/1 46/46/1 49/49/1
f 52/52/1 48/48/1 50/50/1
f 51/51/1 49/49/1 53/53/1
f 54/54/1 52/52/1 50/50/1
f 55/55/1 51/51/1 53/53/1
f 56/56/1 54/54/1 50/50/1
f 55/55/1 53/53/1 57/57/1
f 56/56/1 50/50/1 58/58/1
f 59/59/1 56/56/1 58/58/1
f 60/60/1 59/59/1 58/58/1
f 55/55/1 57/57/1 61/61/1
f 62/62/1 55/55/1 61/61/1
f 62/62/1 61/61/1 63/63/1
f 63/63/1 60/60/1 58/58/1
f 62/62/1 63/63/1 58/58/1
f 64/64/1 62/62/1 58/58/1
f 64/64/1 58/58/1 65/65/1
f 66/66/1 64/64/1 65/65/1
f 67/67/1 66/66/1 68/68/1
f 68/68/1 66/66/1 65/65/1
f 69/69/1 68/68/1 65/65/1
f 70/70/1 67/67/1 68/68/1
f 69/69/1 65/65/1 71/71/1
f 70/70/1 68/68/1 72/72/1
f 70/70/1 72/72/1 73/73/1
f 74/74/1 70/70/1 73/73/1
f 75/75/1 69/69/1 71/71/1
f 76/76/1 74/74/1 73/73/1
f 76/76/1 73/73/1 77/77/1
f 76/76/1 77/77/1 78/78/1
f 75/75/1 71/71/1 79/79/1
f 80/80/1 75/75/1 79/79/1
f 80/80/1 79/79/1 81/81/1
f 82/82/1 80/80/1 81/81/1
f 82/82/1 81/81/1 83/83/1
f 84/84/1 82/82/1 83/83/1
f 84/84/1 83/83/1 85/85/1
f 86/86/1 84/84/1 85/85/1
f 86/86/1 85/85/1 87/87/1
f 88/88/1 86/86/1 87/87/1
f 88/88/1 87/87/1 89/89/1
f 90/90/1 88/88/1 89/89/1
f 90/90/1 89/89/1 91/91/1
f 92/92/2 93/93/2 94/94/2
f 92/92/2 94/94/2 95/95/2
f 96/96/2 92/92/2 95/95/2
f 96/96/2 95/95/2 97/97/2
f 98/98/2 96/96/2 97/97/2
f 98/98/2 97/97/2 99/99/2
f 100/100/2 98/98/2 99/99/2
f 100/100/2 99/99/2 101/101/2
f 102/102/2 100/100/2 101/101/2
f 102/102/2 101/101/2 103/103/2
f 104/104/2 102/102/2 103/103/2
f 104/104/2 103/103/2 105/105/2
f 106/106/2 104/104/2 105/105/2
f 107/107/2 105/105/2 108/108/2
f 109/109/2 105/105/2 107/107/2
f 106/106/2 105/105/2 109/109/2
f 106/106/2 109/109/2 110/110/2
f 111/111/2 107/107/2 108/108/2
f 106/106/2 110/110/2 112/112/2
f 113/113/2 106/106/2 112/112/2
f 113/113/2 112/112/2 114/114/2
f 115/115/2 111/111/2 108/108/2
f 113/113/2 114/114/2 116/116/2
f 115/115/2 108/108/2 117/117/2
f 113/113/2 116/116/2 118/118/2
f 119/119/2 115/115/2 117/117/2
f 120/120/2 113/113/2 118/118/2
f 119/119/2 117/117/2 121/121/2
f 120/120/2 118/118/2 122/122/2
f 123/123/2 119/119/2 121/121/2
f 124/124/2 120/120/2 122/122/2
f 123/123/2 121/121/2 125/125/2
f 124/124/2 122/122/2 126/126/2
f 127/127/2 123/123/2 125/125/2
f 127/127/2 125/125/2 128/128/2
f 129/129/2 124/124/2 126/126/2
f 129/129/2 126/126/2 130/130/2
f 131/131/2 127/127/2 128/128/2
f 129/129/2 130/130/2 132/132/2
f 133/133/2 131/131/2 128/128/2
f 133/133/2 128/128/2 134/134/2
f 135/135/2 129/129/2 132/132/2
f 136/136/2 133/133/2 134/134/2
f 136/136/2 134/134/2 137/137/2
f 138/138/2 136/136/2 137/137/2
f 135/135/2 132/132/2 139/139/2
f 140/140/2 138/138/2 137/137/2
f 141/141/2 135/135/2 139/139/2
f 140/140/2 137/137/2 142/142/2
f 141/141/2 139/139/2 143/143/2
f 144/144/2 140/140/2 142/142/2
f 141/141/2 143/143/2 145/145/2
f 144/144/2 142/142/2 146/146/2
f 141/141/2 145/145/2 147/147/2
f 148/148/2 144/144/2 146/146/2
f 149/149/2 141/141/2 147/147/2
f 149/149/2 147/147/2 150/150/2
f 149/149/2 150/150/2 151/151/2
f 152/152/2 148/148/2 146/146/2
f 152/152/2 146/146/2 153/153/2
f 154/154/2 152/152/2 153/153/2
f 149/149/2 151/151/2 154/154/2
f 149/149/2 154/154/2 153/153/2
f 149/149/2 153/153/2 155/155/2
f 156/156/2 149/149/2 155/155/2
f 156/156/2 155/155/2 157/157/2
f 158/158/2 157/157/2 159/159/2
f 156/156/2 157/157/2 158/158/2
f 156/156/2 158/158/2 160/160/2
f 158/158/2 159/159/2 161/161/2
f 162/162/2 156/156/2 160/160/2
f 163/163/2 158/158/2 161/161/2
f 164/164/2 163/163/2 161/161/2
f 164/164/2 161/161/2 165/165/2
f 162/162/2 160/160/2 166/166/2
f 164/164/2 165/165/2 167/167/2
f 168/168/2 164/164/2 167/167/2
f 169/169/2 168/168/2 167/167/2
f 170/170/2 162/162/2 166/166/2
f 170/170/2 166/166/2 171/171/2
f 172/172/2 170/170/2 171/171/2
f 172/172/2 171/171/2 173/173/2
f 174/174/2 172/172/2 173/173/2
f 174/174/2 173/173/2 175/175/2
f 176/176/2 174/174/2 175/175/2
f 176/176/2 175/175/2 177/177/2
f 178/178/2 176/176/2 177/177/2
f 178/178/2 177/177/2 179/179/2
f 180/180/2 178/178/2 179/179/2
f 180/180/2 179/179/2 181/181/2
f 182/182/2 180/180/2 181/181/2
s 1
f 185/183/3 183/184/4 184/185/5
f 187/186/6 185/183/3 186/187/7
f 189/188/8 187/186/6 188/189/9
f 192/190/10 189/188/8 191/191/11
f 193/192/12 192/190/10 194/193/13
f 195/194/14 193/192/12 196/195/15
f 198/196/16 195/194/14 197/197/17
f 200/198/18 198/196/16 199/199/19
f 202/200/20 200/198/18 201/201/21
f 204/202/22 202/200/20 203/203/23
f 206/204/24 204/202/22 205/205/25
f 208/206/26 206/204/24 207/207/27
f 210/208/28 208/206/26 209/209/29
f 212/210/30 210/208/28 211/211/31
f 214/212/32 212/210/30 213/213/33
f 216/214/34 214/212/32 215/215/35
f 218/216/36 216/214/34 217/217/37
f 220/218/38 218/216/36 219/219/39
f 222/220/40 220/218/38 221/221/41
f 224/222/42 222/220/40 223/223/43
f 226/224/44 224/222/42 225/225/45
f 228/226/46 226/224/44 227/227/47
f 229/228/48 228/226/46 230/229/49
f 183/230/4 229/228/48 231/231/50
f 234/232/51 232/233/52 233/234/53
f 235/235/54 234/232/51 233/234/53
f 237/236/55 235/235/54 236/237/56
f 239/238/57 237/236/55 238/239/58
f 240/240/59 239/238/57 238/239/58
f 242/241/60 240/240/59 241/242/61
f 244/243/62 242/241/60 243/244/63
f 246/245/64 244/243/62 245/246/65
f 248/247/66 246/245/64 247/248/67
f 250/249/68 248/247/66 249/250/69
f 252/251/70 250/249/68 251/252/71
f 254/253/72 252/251/70 255/254/73
f 256/255/74 254/253/72 257/256/75
f 232/257/52 256/255/74 257/256/75
f 185/183/3 184/185/5 186/187/7
f 187/186/6 186/187/7 188/189/9
f 189/188/8 188/189/9 190/258/76
f 189/188/8 190/258/76 191/191/11
f 192/190/10 191/191/11 194/193/13
f 193/192/12 194/193/13 196/195/15
f 195/194/14 196/195/15 197/197/17
f 198/196/16 197/197/17 199/199/19
f 200/198/18 199/199/19 201/201/21
f 202/200/20 201/201/21 203/203/23
f 204/202/22 203/203/23 205/205/25
f 206/204/24 205/205/25 207/207/27
f 208/206/26 207/207/27 209/209/29
f 210/208/28 209/209/29 211/211/31
f 212/210/30 211/211/31 213/213/33
f 214/212/32 213/213/33 215/215/35
f 216/214/34 215/215/35 217/217/37
f 218/216/36 217/217/37 219/219/39
f 220/218/38 219/219/39 221/221/41
f 222/220/40 221/221/41 223/223/43
f 224/222/42 223/223/43 225/225/45
f 226/224/44 225/225/45 227/227/47
f 228/226/46 227/227/47 230/229/49
f 229/228/48 230/229/49 231/231/50
f 183/230/4 231/231/50 184/259/5
f 232/233/52 257/260/75 233/234/53
f 235/235/54 233/234/53 236/237/56
f 237/236/55 236/237/56 238/239/58
f 240/240/59 238/239/58 241/242/61
f 242/241/60 241/242/61 243/244/63
f 244/243/62 243/244/63 245/246/65
f 246/245/64 245/246/65 247/248/67
f 248/247/66 247/248/67 249/250/69
f 250/249/68 249/250/69 251/252/71
f 252/251/70 251/252/71 253/261/77
f 252/251/70 253/261/77 255/254/73
f 254/253/72 255/254/73 257/256/75
