# Blender v2.83.5 OBJ File: ''
# www.blender.org
mtllib hari_5.mtl
o 円錐
v 17.392632 5.087727 0.072787
v -0.083066 5.010000 5.009312
v 0.000000 -350.0 0.000000
v -17.469294 4.930491 0.014544
v 0.083073 5.010000 -5.009311
vt 0.985388 0.296822
vt 0.514611 0.203179
vt 0.796822 0.014612
vt 0.703179 0.485389
vt 0.000000 0.000000
vn -0.0045 1.0000 -0.0002
vn -0.0045 1.0000 0.0001
vn -0.2750 -0.0213 -0.9612
vn 0.2817 -0.0215 -0.9593
vn 0.2719 -0.0213 0.9621
vn -0.2760 -0.0215 0.9609
usemtl None
s off
f 1/1/1 4/2/1 2/3/1
f 5/4/2 4/2/2 1/1/2
f 5/4/3 3/5/3 4/2/3
f 5/4/4 1/1/4 3/5/4
f 1/1/5 2/3/5 3/5/5
f 2/3/6 4/2/6 3/5/6
